# xmcd CD database file
#
# Track frame offsets:
#	150
#	12079
#	24308
#	36278
#	49551
#	61870
#	78096
#	94947
#	108428
#	119283
#	130268
#	143504
#	156928
#	171618
#	186143
#
# Disc length: 2714 seconds
#
# Revision: 0
# Processed by: cddbd v1.5.2PL0 Copyright (c) Steve Scherf et al.
# Submitted via: CDex 1.51
#
DISCID=bc0a980f
DTITLE=Palominos - Sweet Misery
DYEAR=2015
DGENRE=Country
TTITLE0=Hello
TTITLE1=I Don't Care Why You're Cryin'
TTITLE2=(My Permanent Address Is) Lonelyville
TTITLE3=No One's Gonna Love You Like I Do
TTITLE4=Folding Money
TTITLE5=To Be With You Again
TTITLE6=In A Moment Of Weakness
TTITLE7=Wrong, So Wrong
TTITLE8=One For The Mrs
TTITLE9=You're Gonna Lose Her
TTITLE10=Sold Down The River
TTITLE11=18 Wheels
TTITLE12=Sweet Misery
TTITLE13=I Take The Blame
TTITLE14=The Palominos - Ain't No Grave
EXTD=YEAR: 2015
EXTT0=
EXTT1=
EXTT2=
EXTT3=
EXTT4=
EXTT5=
EXTT6=
EXTT7=
EXTT8=
EXTT9=
EXTT10=
EXTT11=
EXTT12=
EXTT13=
EXTT14=
PLAYORDER=
